<svg width="60" height="57" viewBox="0 0 60 57" fill="none" xmlns="http://www.w3.org/2000/svg">
<path d="M26.9883 2.26898C27.9363 -0.648499 32.0637 -0.648489 33.0117 2.269L37.8206 17.0692C38.2445 18.374 39.4604 19.2574 40.8322 19.2574H56.3942C59.4618 19.2574 60.7372 23.1828 58.2555 24.9859L45.6656 34.133C44.5558 34.9393 44.0913 36.3687 44.5153 37.6734L49.3242 52.4737C50.2721 55.3911 46.9329 57.8172 44.4512 56.0141L31.8613 46.867C30.7514 46.0607 29.2486 46.0607 28.1387 46.867L15.5488 56.0141C13.0671 57.8172 9.72789 55.3911 10.6758 52.4737L15.4847 37.6734C15.9087 36.3687 15.4442 34.9393 14.3344 34.133L1.74452 24.9859C-0.737239 23.1828 0.538226 19.2574 3.60585 19.2574H19.1678C20.5396 19.2574 21.7555 18.374 22.1794 17.0692L26.9883 2.26898Z" fill="#FCB022"/>
</svg>
